<svg id="Layer_14" data-name="Layer 14" xmlns="http://www.w3.org/2000/svg" viewBox="0 0 1328 710.97"><path d="M2379.79,1177.25v-71.59l-41.41-.18v-64h-76.7V987.53H2250.8V978.2h15.8V963.3h-54.66V762.13h-28V964.68h-16.75V819.36h-23.66v146.4h-13.61V875.61H2112v52.85h-8.28V913h-23.91V880.27H2101V862.53s-41.66-8.28-55.33-115.26c.24,0-14.75,111.12-65.29,115.26,1.07,2.76.53,18,.53,18h20.71V913h-21.24v12.35h-54.68s-40-6.22-40,37.95c0,1.38-73.16,0-73.16,0s-63.5-1.38-63.5-71.78h-24.84V875.61s-32.92-.65-32.92-13.08c-.21,0-.21-19.32-.21-19.32h8.28s6.26-23.82-18.91-23.85c.57-1.3,0-72.09,0-72.09h-17.1v72.09h-7.77V776.19H1643v43.17s-14.14,1.76-14.14,26.61h-8.28V833.64s-8.67,1.9-8.67-14.28c.39,2.14-15.54,0-15.54,0V768.67h33.87v-11h12.43V734.16s-40-16.56-40-29v-16.1h18.6V673.42s-28.27-19.32-32.41-46.93c0-.33-1.48-10-1.37-9.33-2.63,16.43-6.61,21.08-11,30-3.07,6.18-9.37,13.79-17.84,22.08-.91-1.33-2.16-3.25-3.65-5.55-9.75-15-36.12-61.69-42.15-156C1511,567.81,1493,680.23,1390.07,734.16c1.38,1.38,0,21.75,0,21.75h8.28v10h41.41v53.45h-37.69V776.19h-21.76v43.17H1371V786.61H1359.7v32.75h-26v14.28h8.08c.78,3.32,11.14,51.25-23.47,86.87-29.66,30.52-69.07,28-74.54,27.61,1.38,2.76,0,51.07,0,51.07h-34.43v63.5h-31.09v52.45H1114v103.53H2442v-41.42Zm-1177.45-71.77h-9.66v-20.71h9.66Zm25.13,0h-9.67v-20.71h9.67Zm25.12,0h-9.66v-20.71h9.66Zm25.12,0h-9.66v-20.71h9.66Zm25.12,0h-9.66v-20.71h9.66Zm25.13,0h-9.67v-20.71H1328Zm37.26,62.11h-8.28v-8.28h8.28Zm21.75,0h-8.29v-8.28H1387Zm21.74,0h-8.29v-8.28h8.29Zm4.83-164.26h-8.28V988.15h8.28Zm6.9-164.26H1426v11h-5.52Zm10,328.52h-8.29v-8.28h8.29Zm5.17-164.26h-8.28V988.15h8.28Zm2.76-164.26h5.53v11h-5.53Zm13.81,328.52h-8.28v-8.28h8.28Zm52.45-187.73h-13.8V924.65h13.8ZM1486.7,857V839.07h9.66V857Zm27.6,0h-9.66V839.07h9.66Zm16.57,122.85h-13.81V924.65h13.81ZM1532.25,857h-9.66V839.07h9.66Zm-23.47-45.55a24.85,24.85,0,1,1,24.85-24.85A24.84,24.84,0,0,1,1508.78,811.46Zm88.34,60.74h-8.28v-8.29h8.28Zm0-24.85h-8.28v-8.28h8.28Zm12.43,140.8h-8.28V974.34h8.28Zm17.94,0h-8.28V974.34h8.28Zm24.85,4.14h-6.9v-6.9h6.9Zm2.76-138h-8.28V839.07h8.28Zm11-15.18h8.28v15.18h-8.28Zm1.38,153.22h-6.9v-6.9h6.9Zm13.81,0h-6.91v-6.9h6.91Zm55.21-30.37h-9.66v-9.66h9.66Zm169.78,19.32h8.29v8.29h-8.29Zm-17.94,0h8.28v8.29h-8.28Zm-18,0h8.29v8.29h-8.29Zm-17.94,0h8.28v8.29h-8.28Zm40,142.18h-11v-11h11Zm21.63,0H1903.1v-11h11.05Zm-10.59-62.12c-11,9.67-31.32,0-64.26,40.67-.1.69-.38,1-.61.75.2-.26.41-.5.61-.75.5-3.44,3.63-14.46-35.12-28.24,2.12,1.38-70.19-25.12-46.14-64.33.91-1.48,6.71-10.72,18-14.52,19.13-6.45,37.22,8.45,40.58,11.21,1.63,1.34,4.27,3.68,11.59,13a327.24,327.24,0,0,1,21.57,31.13c-2.69,2.38,16.21-42.71,53.8-37.27C1906.32,1014.37,1942.21,1035.56,1903.56,1061.3Zm20.71-80.06h8.28v8.29h-8.28Zm11.5,142.18h-11v-11h11Zm21.63,0h-11.05v-11h11.05Zm0-111.81h-9.67v-20.7h9.67Zm38.65,46.93h-6.9v-6.9h6.9ZM1998.81,955h-15.19V939.83h15.19Zm35.89-69H2043v20.7h-8.28ZM2014,1058.54h-6.9v-6.9h6.9ZM2024,955h-15.18V939.83H2024Zm23.12,125.61h-11v-29h11ZM2049.19,955H2034V939.83h15.18ZM2054,906.7h-8.28V886H2054Zm5.18,33.13h15.18V955H2059.2Zm16.91,88.35h-9.66v-9.67h9.66Zm21.53,0H2088v-9.67h9.66Zm1.93-73.16h-15.18V939.83h15.18Zm19.61,73.16h-9.67v-9.67h9.67Zm21.53,0h-9.66v-9.67h9.66Zm21.53,0h-9.66v-9.67h9.66Zm21.54,0h-9.67v-9.67h9.67Zm17.94,139.41h-6.9v-6.9h6.9Zm17.94,0h-6.9v-6.9h6.9Zm18,0h-6.9v-6.9h6.9Zm17.94,0h-6.9v-6.9h6.9Zm51.08-107.67H2326v13.81h-19.32Zm-38.65,0h19.32v13.81H2268Zm5.52,107.67h-6.9v-6.9h6.9Zm17.94,0h-6.9v-6.9h6.9Zm17.95,0h-6.9v-6.9h6.9Zm17.94,0h-6.9v-6.9h6.9Z" transform="translate(-1114 -507.69)"/></svg>