<svg id="Github" xmlns="http://www.w3.org/2000/svg" viewBox="0 0 428 428"><defs><style>.cls-1{fill:#fff;}</style></defs><path id="GithubCircle" class="cls-1" d="M1075,224c0-118.19,95.81-214,214-214s214,95.81,214,214c0,98.05-65.94,180.7-155.9,206-18.48,5.2-97.83,5.18-116.35,0C1140.87,404.61,1075,322,1075,224Z" transform="translate(-1075 -10)"/><g id="Cat"><path d="M1402.54,158c12-30-1.82-55-1.82-55-14.11-7.61-54.07,18.29-57.89,20.8C1320,111,1290.44,111.51,1289,112c-1.44-.49-35-1-54.3,11.8-3.81-2.51-43.78-28.41-57.88-20.8,0,0-13.82,25-1.82,55,0,0-43,36-10,117v1s16,41,85,45a45.6,45.6,0,0,0-13,29s-6,6-33,6c0,0-21-3-32-27,0,0-15-20-33-19,0,0-16,1-1,12,0,0,18,9,25,33,0,1,7,34,73,25v43s1.35,5.24-5,7a214.25,214.25,0,0,0,116,0c-3.21-.92-4.33-2.36-5-3.44a6.52,6.52,0,0,1-1-3.56l.54-43q-.3-6.94-.54-14-.27-8.07-.46-16a45.6,45.6,0,0,0-13-29c69-4,85-45,85-45v-1C1445.54,194,1402.54,158,1402.54,158Z" transform="translate(-1075 -10)"/></g></svg>