<svg xmlns="http://www.w3.org/2000/svg" viewBox="0 0 998 426.23"><defs><style>.cls-1{fill:#2e3235;}.cls-2{fill:#fff;}</style></defs><g id="Layer_10" data-name="Layer 10"><rect class="cls-1" width="998" height="426.23" rx="18"/></g><g id="Layer_11" data-name="Layer 11"><rect class="cls-2" x="27.17" y="34.53" width="91.19" height="63.08" rx="8"/><rect class="cls-2" x="155.44" y="36.19" width="61.56" height="61.43" rx="8"/><rect class="cls-2" x="250.53" y="36.19" width="60.47" height="61.43" rx="8"/><rect class="cls-2" x="344.62" y="36.19" width="61.38" height="61.43" rx="8"/><rect class="cls-2" x="438.71" y="36.19" width="62.29" height="61.43" rx="8"/><rect class="cls-2" x="533.81" y="36.19" width="61.19" height="61.43" rx="8"/><rect class="cls-2" x="627.9" y="36.19" width="62.1" height="61.43" rx="8"/><rect class="cls-2" x="722.99" y="36.19" width="61.01" height="61.43" rx="8"/><rect class="cls-2" x="817.08" y="36.19" width="61.92" height="61.43" rx="8"/><rect class="cls-2" x="912.17" y="36.19" width="60.83" height="61.43" rx="8"/><rect class="cls-2" x="180.45" y="134.95" width="63.55" height="62.67" rx="8"/><rect class="cls-2" x="275.51" y="134.95" width="63.49" height="62.67" rx="8"/><rect class="cls-2" x="370.57" y="134.95" width="63.43" height="62.67" rx="8"/><rect class="cls-2" x="465.63" y="134.95" width="63.37" height="62.67" rx="8"/><rect class="cls-2" x="560.7" y="134.95" width="63.3" height="62.67" rx="8"/><rect class="cls-2" x="656.63" y="134.95" width="63.37" height="62.67" rx="8"/><rect class="cls-2" x="751.7" y="134.95" width="63.3" height="62.67" rx="8"/><rect class="cls-2" x="27" y="134.53" width="123" height="63.08" rx="8"/><rect class="cls-2" x="849.74" y="134.95" width="123.26" height="62.67" rx="8"/><rect class="cls-2" x="207.45" y="234.06" width="63.55" height="62.55" rx="8"/><rect class="cls-2" x="302.51" y="234.06" width="63.49" height="62.55" rx="8"/><rect class="cls-2" x="397.57" y="234.06" width="63.43" height="62.55" rx="8"/><rect class="cls-2" x="492.63" y="234.06" width="63.37" height="62.55" rx="8"/><rect class="cls-2" x="587.51" y="234.06" width="63.49" height="62.55" rx="8"/><rect class="cls-2" x="682.57" y="234.06" width="63.43" height="62.55" rx="8"/><rect class="cls-2" x="24" y="233.69" width="156" height="63.08" rx="8"/><rect class="cls-2" x="781.31" y="234.06" width="191.69" height="62.55" rx="8"/><rect class="cls-2" x="207.45" y="333.18" width="63.55" height="62.44" rx="8"/><rect class="cls-2" x="778.44" y="333.18" width="80.56" height="62.44" rx="8"/><rect class="cls-2" x="892.73" y="333.18" width="80.27" height="62.44" rx="8"/><rect class="cls-2" x="302.47" y="333.18" width="443.53" height="62.44" rx="8"/><rect class="cls-2" x="24" y="332.86" width="63" height="63.08" rx="8"/><rect class="cls-2" x="116" y="332.86" width="63" height="63.08" rx="8"/></g></svg>