<svg id="Layer_16" data-name="Layer 16" xmlns="http://www.w3.org/2000/svg" viewBox="0 0 1241.93 579.31" style="width: 200px;"><defs><style>.logo-cls-1{fill:#fff;}.logo-cls-2{fill:#ec1c24;fill-rule:evenodd;}</style></defs><path class="logo-cls-1" d="M1737.77,1957.53c-13.66,3-144.87-14.41-260.92,67.5-5.31,3.8-11.9,7.55-17.78,11.13-7,4.27-12.32,5.94-20.32,8-2.52.42-5.08,1.08-7.41,1.3-3.12.3-4.55,0-5.31-3.79-2.28-9.86-2.28-10.62,3.79-19,19-26.55,34.13-54.61,47.78-83.44,3-6.06,19.72-43.23,22-49.3,14.41-30.34,45.51-128.94,50.06-147.9,7.59-29.58,12.9-59.17,17.45-88.75,4.55-26.54,9.1-51.57,16.68-77.36,3.8-11.38,7.59-22.76,15.17-32.62l4.55-6.07c5.31-6.06,12.9-9.1,21.24-9.1h4.45a103.55,103.55,0,0,1,17.14,1.37c7.31,1.22,12.92,3.12,19.37,8.49l9.1,7.59c6.07,6.06,9.11,13.65,10.62,22a118.1,118.1,0,0,1,2.28,32.62c-.76,17.44-4.55,34.89-9.1,51.58a723.14,723.14,0,0,1-35.65,90.26c-9.11,18.2-19,35.65-33.38,49.3-3,3-5.31,4.55-9.86,4.55-.76-.76-2.27-1.52-1.51-3l1.51-2.28c11.38-15.93,19-34.13,25.79-53.09a565.28,565.28,0,0,0,26.55-94.82c2.27-14.41,3.79-29.58,2.27-44-.76-9.1-1.94-18.2-5.81-26.71-1.62-2.86-2.53-5.9-6.32-6.66-.76,2.27-2.28,4.55-3,6.82-6.06,15.93-9.86,32.62-12.89,48.55l-13.65,78.12c-4.56,26.55-9.86,52.34-18.21,77.37-4.55,15.17-28.82,83.43-37.92,101.64-9.1,19-18.21,44-38.69,79.64-5.3,8.34-10.61,16.69-15.92,24.27a353.32,353.32,0,0,1,133.49-33.37,531.6,531.6,0,0,1,103.16-2.28c6.82,0,7.58,3.79,7.58,3.79S1748.39,1955.25,1737.77,1957.53Z" transform="translate(-1424.63 -1528.22)"/><path class="logo-cls-1" d="M1871.25,1842.24c-6.07,3.79-38.69,3.79-47-11.38a23.27,23.27,0,0,0-3.79,5.31,114.48,114.48,0,0,1-6.07,9.86,228.19,228.19,0,0,1-44.75,56.13,94.47,94.47,0,0,1-13.66,10.62c-8.34,5.31-17.44,5.31-26.54,1.51-3-.75-4.55-2.27-4.55-5.3-.76-4.56-.76-9.87-1.52-14.42-1.52-27.3-1.52-54.61,6.07-81.15a22.34,22.34,0,0,1,1.51-6.83c1.52-3.79,3-6.07,7.59-5.31,4.55,0,9.1-2.28,12.89.76,5.31,4.55,9.86,9.1,12.14,15.93,5.31,20.47,8.34,41,3,62.19-.76,1.52-.76,3-1.51,4.55v1.52l1.77.63c6.19-7.8,13.23-15.57,19.46-24.14,11.38-14.41,22-30.34,34.14-44,2.55-2.55,5.1-5.1,8.11-6.75a4.75,4.75,0,0,1,3.45-.4h0a1.75,1.75,0,0,1,1.33,1.7v1.66c-4.55,20.48,30.34,22,36.41,19,0,0,3-1.51,4.55,2.28S1872,1841.48,1871.25,1842.24Z" transform="translate(-1424.63 -1528.22)"/><path class="logo-cls-1" d="M1928.12,1789.14a58.57,58.57,0,0,1,11.38,1.52c10.62,2.28,12.13,10.62,11.38,19.72a16.33,16.33,0,0,1-1.52,5.31c-4.06,9.3-8.35,20.48-17.45,26.55-7.58,4.55-12.89,9.1-28.06,19.72-6.83,12.13-9.1,18.12-8.77,28.87.11,3.48.42,4.5,3.46,5.26,6.07.76,11.38,0,17.44-1.52,8.35-3,17.45-6.06,25.79-11.37,12.14-7.59,39.44-30.34,46.27-43.24,4.55-9.1,9.1-8.34,12.9-6.07s1.51,9.86,1.51,9.86c-10.62,22.76-56.88,53.1-72.81,61.44a83.32,83.32,0,0,1-47,9.1c-3.27-.22-6.07-.7-9.89-1.29-6.67-1-12.86-2.5-19.69-4-7.59-3-13.65-11.38-12.89-18.21,0-6.83,0-10.62,1.51-17.44,3.79-18.21,10.62-37.93,19.72-53.86C1875,1796.73,1901.57,1789.14,1928.12,1789.14Zm10.24,19.22c.3-1.37,1.9-5.56.38-5.56a20.34,20.34,0,0,0-5.81.29,55.23,55.23,0,0,0-5.32,1.79,6,6,0,0,0-2.54,2c-7.12,9.72-11.54,22.12-16.67,33.1,0,.76,18.76-3,27.58-24.81A43,43,0,0,0,1938.36,1808.36Z" transform="translate(-1424.63 -1528.22)"/><path class="logo-cls-1" d="M2184.94,1600.82a306.89,306.89,0,0,1-16.74,36c-5.79,10.3-35.41,57.3-45.07,72.11-9,20-18.67,39.92-28.32,59.23-9,18.67-19.32,36.69-29,55.36-7.09,13.52-14.17,27.69-21.25,41.85-4.51,9-8.37,18.67-9,29.62-2.57,18.67,16.1,14.16,21.25,12.87,22.54-6.44,61.81-55.36,61.81-55.36s3.22-5.15,7.72-2.58c5.15,2.58,0,9,0,9s-39.27,57.29-76.61,61.8c-3.86.64-9.66,1.29-13.52.64a21.48,21.48,0,0,1-10.3-3.21c-5.79-2.58-9.66-7.73-11.59-16.1-2.57-12.23-3.22-25.11-1.29-41.2,2.58-12.88,6.44-28.33,11-43.14a470.68,470.68,0,0,1,26.39-69.53l46.36-100.43c10.3-22.53,21.24-45.07,31.54-67.6a171.39,171.39,0,0,1,21.89-32.83,60,60,0,0,1,9-9c3.23-2.57,6.44-4.5,9.66-1.93,1.29,1.29,3.22.64,4.51.64s3.22.65,3.86,1.93C2192,1548.67,2191.37,1583.44,2184.94,1600.82Zm-3.22-36.7c-3.22,17.39-10.3,33.48-16.74,49.58a476.21,476.21,0,0,1-20.6,49.57c4.51-7.73,24.46-41.85,26.39-45.71C2182.36,1593.1,2183,1575.07,2181.72,1564.12Z" transform="translate(-1424.63 -1528.22)"/><path class="logo-cls-1" d="M2199.1,1813.28s3.86-5.15,7.08-3.23c3.86,1.94,1.28,7.09,1.28,7.09l-29.61,40.56c-4.51,5.15-8.37,10.94-13.52,15.45-5.79,5.79-12.23,10.3-20,12.88-16.09,3.86-30.9-5.8-35.41-23.83-2.57-9-2.57-18-1.28-27,2.57-14.8,5.79-28.32,12.87-41.2,0-.64,9.66-14.81,12.88-19.31a34.82,34.82,0,0,1,3.86-5.15c1.93-2.58,3.86-4.51,7.73-1.93,1.28.64,3.86,0,5.79-.65a9.68,9.68,0,0,1,7.08,2.58c8.37,9,11.59,13.52,7.73,25.11a160.53,160.53,0,0,1-6.44,15.44c-5.15,13.52-10.94,27-16.74,41.21-3.22,7.73-4.51,11.59-5.8,20.6,0,3.22,3.23,3.22,6.44,2.58C2159.82,1869.93,2190.73,1826.8,2199.1,1813.28Zm-30.26-63.74c5.15,1.29,10.3,3.22,14.8,4.51a2.37,2.37,0,0,0,1.94-.65c.64-.64,1.93-1.93,1.28-1.93,5.8-5.15,7.09-15.45,7.09-17.38-.65-5.15-2.58-8.37-6.44-10.95-3.87-1.93-7.73-5.79-12.88-7.08-1.93-.64-3.86-2.58-5.79-3.86-3.22-1.93-7.09-2.58-10.3-.65-4.51,1.93-6.44,7.09-8.38,11.59a4.12,4.12,0,0,0,0,3.86,9.77,9.77,0,0,1,1.94,8.38,6.77,6.77,0,0,0,3.22,5.79Z" transform="translate(-1424.63 -1528.22)"/><path class="logo-cls-1" d="M2126.34,2107.49s-9.38.44-15.68-1.44c-2.74-.81-8.78-3.07-12-5.64-7.08-5.15-10.3-12.23-9.66-20.6a58.34,58.34,0,0,1,5.15-18,147.1,147.1,0,0,1,16.74-29.61c13.52-20,29-38,45.07-54.73,16.74-18.67,34.12-36,50.86-54.07a27.06,27.06,0,0,0,7.08-11.59c3.22-10.31,5.79-21.25,9-32.19.65-3.22,0-3.87-3.86-4.51-1.93,0-4.51-.64-7.08-.64a19.91,19.91,0,0,1-12.88-7.09c-4.5-4.5-8.37-10.3-9.65-16.09-2.58-9.66-3.87-18.67-1.29-28.33,1.29-4.51,1.93-9,3.22-13.52,2.57-10.3,8.37-18.67,16.74-25.75,6.43-5.8,14.16-7.72,23.17-6.44,3.22,0,6.44.64,9.66.64a21.15,21.15,0,0,1,12.23,3.87l15.45,13.52a18.25,18.25,0,0,1,5.15,9c1.29,4.51.65,7.08-3.22,9.66-1.93,1.93-3.86,1.29-5.79-.64a44.33,44.33,0,0,0-7.08-8.38,1.83,1.83,0,0,0-3.22,0c-3.22,5.15-6.44,9.66-9.66,14.17-3.86,6.44-7.72,12.23-11.59,19.31-3.22,6.44-5.79,13.52-9,20.61a.89.89,0,0,0,0,1.28,4.85,4.85,0,0,0,1.29,2.58c.64-.65,1.93-.65,2.57-1.93,1.29-1.93,1.93-4.51,2.58-6.44,3.22-6.44,6.44-12.24,10.94-16.74,1.93-1.29,3.22-2.58,5.15-3.22a5.82,5.82,0,0,1,1.93,0c.65,2.57,1.94,1.93,3.87,1.93,1.29-.64,3.22-.64,4.5-1.29,6.44-.64,10.95,1.93,14.81,6.44l.65.64a83.11,83.11,0,0,1,7.08,8.37,93.51,93.51,0,0,0,8.36-7.08c16.1-14.8,22.54-21.89,39.92-35.4,2.58-1.94,7.08-3.23,9-.65a6.93,6.93,0,0,1-1.29,9c-15.45,14.17-56,46.36-56,48.93,0,11.59-2.58,17.38-5.15,28.33-6.44,31.55-17.39,61.8-30.91,91.42-3.21,7.08-6.43,13.52-10.3,20.6-7.72,13.52-16.09,26.4-23.17,39.27-11.59,20.6-27.69,36.7-45.71,50.86C2153.38,2104.92,2139.86,2107.49,2126.34,2107.49Zm-9-9.66c9.66,0,16.74-3.21,23.18-8.37a98.88,98.88,0,0,0,16.09-20.6c10.3-16.74,17.38-35.41,22.53-54.07,7.09-25.76,14.81-50.86,25.11-75.33,0-1.29.65-1.93.65-3.22,0-.64-29,29.61-40.56,42.49-16.1,17.39-30.91,34.77-42.49,54.72-7.73,12.88-16.1,25.11-19.32,39.28a26.39,26.39,0,0,0,0,14.16,14,14,0,0,0,8.37,9.66C2113.47,2097.19,2115.33,2097.83,2117.33,2097.83Z" transform="translate(-1424.63 -1528.22)"/><path class="logo-cls-1" d="M2384.5,1790.1a3.87,3.87,0,0,0-.64,2.57h3.22c3.86,0,7.08-.64,10.3-.64,8.37.64,13.52,7.08,12.87,14.81a67.46,67.46,0,0,1-3.22,12.23l-9.65,32.19a100.26,100.26,0,0,0-2.58,14.81c0,3.21,1.93,3.86,4.51,2.57a25.83,25.83,0,0,0,5.79-3.22c12.23-9,41.85-38.62,55.37-54.08,7.08-9,13.52,1.94,9,6.44-4.5,5.15-38.63,41.85-52.79,52.15-4.51,3.22-20,14.16-32.83,12.87-4.51-.64-16.1-2.57-17.39-7.08-.64-3.21-2.57-7.72-2.57-11.59a137.66,137.66,0,0,1,7.08-36.05c1.93-5.79,4.51-9.66,3.86-9.66-9.65,7.73-8.37,6.44-15.45,17.39a375.67,375.67,0,0,1-30.26,41.2c-7.08,7.73-12.87,16.1-19.31,23.82-2.58,3.87-6.44,5.15-11,5.15-9.65-1.28-12.23-1.28-10.3-14.16,1.94-13.52,24.47-67.6,30.26-82.41,1.29-3.86,25.11-52.15,27-56,9.66-21.25,20.6-43.13,30.9-64.38,10.31-22.53,20.61-44.42,31.55-67L2431.5,1577c3.86-7.73,14.16-32.19,21.24-30.9,2.58.64,5.8,1.29,8.37.64a14,14,0,0,1,10.3,4.51c4.51,5.15,8.37,10.3,7.73,18-.64,6.44.64,13.52,1.93,20.6a56.33,56.33,0,0,1,.64,18c-1.93,17.39-7.72,32.84-15.45,47.64a290,290,0,0,1-39.91,56.66l-10.3,12.23a83.13,83.13,0,0,0-6.44,9.66Zm45.07-95.29c0-.64.64-.64,1.28-.64,15.46-19.31,26.4-40.56,32.19-64.38l1.94-10.3a2.27,2.27,0,0,0-.65-1.29c-.64,0-.64,0-.64.65l-1.29,1.29q-16.41,35.73-32.83,71.46C2428.92,1692.24,2429.57,1693.53,2429.57,1694.81Z" transform="translate(-1424.63 -1528.22)"/><path class="logo-cls-1" d="M2583.42,1819.07l-13.52,20c-5.79,8.37-12.23,17.38-14.81,20-5.15,7.08-14.81,15.45-22.53,22.53-5.8,4.51-17.38,11.59-17.38,11.59l-3.86,1.93a60.68,60.68,0,0,1-39.92,3.86c-9.66-2.58-17.38-8.37-20.6-18.67-1.94-8.37-3.22-16.1-1.94-24.47a158.91,158.91,0,0,1,6.44-30.25c0-.65,12.88-39.28,12.88-39.28v-1.93a9.15,9.15,0,0,0,1.29-3.86c1.28-3.86,8.37-20.6,11.59-27h-.65c-11.59-1.29-29.61-3.22-41.2-4.5-4.51-.65-4.51-3.23-5.15-5.16-1.93-4.5,3.22-3.86,6.44-3.86a119.63,119.63,0,0,1,14.8.64c10.31.65,20.6,1.94,30.91,2.58a154.79,154.79,0,0,1,8.36-13.52c3.23-5.79,7.73-11.59,11.6-16.74,1.92-2.57,4.5-4.51,6.43-7.08,1.93-1.29,3.22-1.93,5.15-.64a9,9,0,0,0,5.8,0c6.44-1.93,12.23-.65,16.73,5.15.65.64,1.29,1.93,1.94,1.93a11,11,0,0,1,2.57,3.22c2.58,0,4.51.64,5.8,0,4.5,0-5.15,20-12.88,33.48,10.3,1.28,20.6,1.93,30.26,3.21,5.15.65,10.3,3.87,11.59,5.8,1.93,4.51-3.22,3.86-6.44,3.86a114.68,114.68,0,0,1-14.81-.64c-9-.65-17.38-1.29-25.75-2.58a2,2,0,0,0-.64,1.29s-5.16,9-5.16,8.37a2.37,2.37,0,0,0-.64,1.93c-5.79,7.08-9,15.45-13.52,23.18-11.59,21.89-12.87,25.75-22.53,45.71-4.51,8.37-7.73,19.31-10.3,28.32-1.93,5.16-1.29,9.66-1.29,14.81,1.29,12.88,30.54-.17,30.54-.17a56.09,56.09,0,0,0,5.51-2.4,149.69,149.69,0,0,0,29-24.47c6.43-7.72,27.68-35.41,27.68-35.41,1.93-3.22,3.86-5.15,4.51-6.43,0,0,3.86-3.87,7.08-1.29S2583.42,1819.07,2583.42,1819.07Z" transform="translate(-1424.63 -1528.22)"/><path class="logo-cls-1" d="M2657.46,1804.26c10.29-1.93,12.23,9,3.86,11-14.17,3.86-42.49,20.6-48.29,24.46-1.93,1.29-3.22,2.57-3.22,5.15a95.85,95.85,0,0,1-3.22,23.18c-3.22,14.8-10.94,25.75-23.82,33.47a70.07,70.07,0,0,1-47,9h-.64c-5.15-1.29-9.66-3.22-11.59-8.37-1.93-6.44-.64-11.59,3.87-16.09a76.51,76.51,0,0,1,7.72-7.09c10.3-7.08,20-13.52,30.26-20l2.57-1.94c3.87-2.57,3.87-2.57,2.58-7.08q-4.83-21.24-11.59-42.49c-.64-2.58-5.15-28.33-4.5-32.83.64-1.94,1.93-3.22,2.57-4.51,1.93-1.93,2.58-1.29,5.15-1.29h5.15c8.37-2.57,11.59,1.93,17.39,7.73,7.08,7.72,14.16,16.09,16.73,26.39,2.58,7.73,4.51,16.1,7.08,23.83.65,1.93,1.29,1.93,2.58,1.28C2615,1825.51,2643.29,1806.84,2657.46,1804.26ZM2573.12,1868c.64-.65,0-1.29-.65-1.93a3.18,3.18,0,0,0-1.93.64c-9.66,5.8-20,11.59-29,19.32-1.93,1.28-3.86,3.86-5.8,5.79a5.57,5.57,0,0,0-1.92,3.86c-1.29,4.51.64,7.08,5.14,7.08a24.6,24.6,0,0,0,14.17-4.5c8.37-5.15,15.45-12.88,18.67-23.18A23.27,23.27,0,0,0,2573.12,1868Z" transform="translate(-1424.63 -1528.22)"/><path class="logo-cls-2" d="M1656.13,1817.77c13.32-17,38.39-20.4,51.15-7.46,34.82,35.28-9.53,92.7-57.54,95.37,53-14,64.79-76.18,42.62-84.71-12.77-4.93-32,3.55-38.36,17.58-1.77-11.72-18-32.82-33-18.12-23.06,22.51.7,96.17,67.66,104.43-70.46,5.22-122.13-71.65-76.18-120.41C1623.28,1793,1650.1,1799.3,1656.13,1817.77Z" transform="translate(-1424.63 -1528.22)"/></svg>