<svg xmlns="http://www.w3.org/2000/svg" viewBox="0 0 997 426.23"><defs><style>.cls-1{fill:#2e3235;}.cls-2{fill:#ff5f55;}.cls-3{fill:#03bedd;}</style></defs><g id="Console"><g id="TopBtns"><polygon class="cls-1" points="277 1.23 277 3.23 255 3.23 255 1.23 236 1.23 236 4.23 255 4.23 277 4.23 296 4.23 296 1.23 277 1.23"/></g><g id="Scrn1"><path class="cls-1" d="M1304.29,351.28A6.3,6.3,0,0,0,1298,346H615.47a6.3,6.3,0,0,0-6.26,5.28c-1.09,7.14-4.93,9.6-8.19,10.37a6.37,6.37,0,0,0-5,6.16V760.65a6.35,6.35,0,0,0,6.35,6.35h708.8a6.35,6.35,0,0,0,6.35-6.35V367.81a6.37,6.37,0,0,0-5-6.16C1309.22,360.88,1305.38,358.42,1304.29,351.28Z" transform="translate(-458 -341.77)"/></g><g id="Scrn2"><rect x="159.25" y="19.23" width="680" height="390" rx="10"/></g><g id="Scrn3"><rect class="cls-1" x="210.75" y="52.23" width="577" height="325"/></g></g><g id="Red"><path class="cls-1" d="M1342.71,346v-4.23h31.71s32.34,1.23,52,20.23h.24s19.57,19,25,33c0,0,1.17,4.93-4.21,4.46C1447.39,399.46,1418.41,350,1342.71,346Z" transform="translate(-458 -341.77)"/><path class="cls-2" d="M1317,353.1a7.1,7.1,0,0,1,7.1-7.1h50.65s74.12,0,80.23,94.75c0,.16,0,.33,0,.5V686s1,60.53-76.1,80.77a7.44,7.44,0,0,1-1.82.23h-53a7.1,7.1,0,0,1-7.1-7.1Z" transform="translate(-458 -341.77)"/><circle class="cls-1" cx="927" cy="226.23" r="32"/><circle class="cls-1" cx="960" cy="110.23" r="16"/><circle class="cls-1" cx="927" cy="78.23" r="16"/><circle class="cls-1" cx="895" cy="110.23" r="16"/><circle class="cls-1" cx="927" cy="142.23" r="16"/><circle class="cls-1" cx="904" cy="305.23" r="16"/><polygon class="cls-1" points="896 41.23 888 41.23 888 33.23 882 33.23 882 41.23 874 41.23 874 47.23 882 47.23 882 55.23 888 55.23 888 47.23 896 47.23 896 41.23"/></g><g id="Blue"><path class="cls-1" d="M571.29,347v-4.23H539.58s-32.34,1.23-52,20.23h-.24s-19.57,19-25,33c0,0-1.17,4.93,4.21,4.46C466.61,400.46,495.59,351,571.29,347Z" transform="translate(-458 -341.77)"/><path class="cls-3" d="M596,354.12a7.12,7.12,0,0,0-7.12-7.12H538.25s-74.12,0-80.23,94.74c0,.17,0,.34,0,.51V687s-1,60.53,76.1,80.77a7.46,7.46,0,0,0,1.83.23h53a7.12,7.12,0,0,0,7.12-7.12Z" transform="translate(-458 -341.77)"/><circle class="cls-1" cx="73" cy="110.23" r="32"/><circle class="cls-1" cx="105" cy="226.23" r="16"/><circle class="cls-1" cx="72" cy="194.23" r="16"/><circle class="cls-1" cx="40" cy="226.23" r="16"/><circle class="cls-1" cx="72" cy="258.23" r="16"/><rect class="cls-1" x="105" y="41.23" width="22" height="6"/><rect class="cls-1" x="85" y="293.23" width="25" height="25" rx="2"/></g></svg>